<?xml version="1.0" encoding="UTF-8" standalone="no"?>
<!-- Created with Inkscape (http://www.inkscape.org/) -->

<svg
   width="119.2935mm"
   height="134.43446mm"
   viewBox="0 0 119.2935 134.43446"
   version="1.1"
   id="svg1"
   inkscape:version="1.3.2 (091e20e, 2023-11-25, custom)"
   sodipodi:docname="mmmm.svg"
   inkscape:export-filename="migu project\Migu\favicon\miguchar.svg"
   inkscape:export-xdpi="42.584045"
   inkscape:export-ydpi="42.584045"
   xmlns:inkscape="http://www.inkscape.org/namespaces/inkscape"
   xmlns:sodipodi="http://sodipodi.sourceforge.net/DTD/sodipodi-0.dtd"
   xmlns="http://www.w3.org/2000/svg"
   xmlns:svg="http://www.w3.org/2000/svg">
  <sodipodi:namedview
     id="namedview1"
     pagecolor="#ffffff"
     bordercolor="#000000"
     borderopacity="0.25"
     inkscape:showpageshadow="2"
     inkscape:pageopacity="0.0"
     inkscape:pagecheckerboard="0"
     inkscape:deskcolor="#d1d1d1"
     inkscape:document-units="mm"
     inkscape:zoom="0.46947952"
     inkscape:cx="190.63664"
     inkscape:cy="725.27125"
     inkscape:window-width="1366"
     inkscape:window-height="705"
     inkscape:window-x="-8"
     inkscape:window-y="-8"
     inkscape:window-maximized="1"
     inkscape:current-layer="layer1"
     showgrid="false" />
  <defs
     id="defs1" />
  <g
     inkscape:label="Layer 1"
     inkscape:groupmode="layer"
     id="layer1"
     transform="translate(-24.927622,-87.216833)">
    <g
       id="g30"
       transform="translate(32.12334,30.432638)">
      <path
         sodipodi:type="spiral"
         style="fill:none;fill-rule:evenodd;stroke:#000000;stroke-width:0.264583"
         id="path12"
         sodipodi:cx="91.297913"
         sodipodi:cy="94.115753"
         sodipodi:expansion="1"
         sodipodi:revolution="1.1785771"
         sodipodi:radius="23.349165"
         sodipodi:argument="-11.602547"
         sodipodi:t0="0.021292536"
         d="m 91.513846,94.563574 c 0.895212,2.968378 -3.605771,2.952 -5.12503,1.919285 -4.09995,-2.786937 -2.770435,-8.830076 0.390818,-11.737477 5.492902,-5.051817 14.128746,-2.830865 18.349926,2.700921 6.11763,8.017064 2.91695,19.499757 -5.01102,24.962377 -5.924716,4.0823 -13.693955,4.68077 -20.322132,2.02699" />
      <path
         sodipodi:type="spiral"
         style="fill:none;fill-rule:evenodd;stroke:#000000;stroke-width:0.264583"
         id="path13"
         sodipodi:cx="57.483868"
         sodipodi:cy="80.026566"
         sodipodi:expansion="1"
         sodipodi:revolution="1.1785771"
         sodipodi:radius="29.262117"
         sodipodi:argument="-7.1322093"
         sodipodi:t0="0.021292536"
         d="m 57.963869,79.629314 c 3.342726,-1.980896 4.674873,3.500398 3.874741,5.659112 -2.159277,5.825618 -9.911383,6.02332 -14.398463,3.050373 -7.796619,-5.165705 -7.688541,-16.34016 -2.226004,-23.137813 7.916704,-9.851652 22.84924,-9.406713 31.877164,-1.401637 6.74672,5.982329 9.808721,15.255435 8.570926,24.117162" />
      <path
         sodipodi:type="spiral"
         style="fill:none;fill-rule:evenodd;stroke:#000000;stroke-width:0.264583"
         id="path14"
         sodipodi:cx="32.123341"
         sodipodi:cy="123.98482"
         sodipodi:expansion="1"
         sodipodi:revolution="1.1785771"
         sodipodi:radius="52.777111"
         sodipodi:argument="-8.4502459"
         sodipodi:t0="0.021292536"
         d="m 31.646123,122.96742 c -1.951523,-6.73083 8.22126,-6.58487 11.630113,-4.21395 9.199306,6.39831 6.048053,20.02491 -1.167422,26.51974 C 29.571415,156.55845 10.106313,151.3296 0.69944759,138.72442 -12.933663,120.45608 -5.4215221,94.58021 12.629611,82.425426 26.119527,73.341951 43.694147,72.177334 58.611007,78.335864" />
      <circle
         id="path15"
         style="fill:#ffffff;stroke:#433d5d;stroke-width:0.264583"
         cx="37.195442"
         cy="148.21822"
         r="0.41159028" />
      <path
         style="fill:#ffffff;stroke:#433d5d;stroke-width:1.45071;stroke-opacity:0.55618"
         d="m 38.32258,149.34535 c 0,0 -27.051233,24.2334 4.50854,34.37761 31.559772,10.14421 34.941176,7.32637 49.593925,1.6907 14.652755,-5.63567 28.178365,-1.12713 10.707785,-34.94118 -17.470593,-33.81404 -18.034158,-34.3776 -18.034158,-34.3776"
         id="path16" />
      <path
         style="fill:#ffffff;stroke:#433d5d;stroke-width:1.45071;stroke-opacity:0.55618"
         d="m 49.03036,133.0019 c 0,0 5.635673,-30.43264 32.686905,-18.03416"
         id="path17" />
      <path
         style="fill:#ff7f2a;stroke:#000000;stroke-width:11.6789;stroke-opacity:0.849557"
         d="m 255.04065,714.56779 c -40.93355,-6.43747 -104.60192,-26.32285 -122.1607,-38.15417 -18.57816,-12.51816 -23.19045,-20.57613 -23.15634,-40.45551 0.0244,-14.21626 0.8727,-17.68688 7.17388,-29.35011 3.93042,-7.27504 12.40087,-19.03394 18.82324,-26.13088 6.53598,-7.22249 11.18515,-14.18536 10.55981,-15.81497 -0.67487,-1.75869 2.63907,-5.609 8.36984,-9.72453 11.26211,-8.08784 22.89436,-24.60407 27.77286,-39.43373 1.93409,-5.87925 4.1914,-11.16879 5.01623,-11.75454 0.82484,-0.58576 3.61818,-7.47786 6.20742,-15.31578 8.47904,-25.66701 23.56411,-44.90261 43.60208,-55.59884 12.02365,-6.4182 39.4484,-6.26951 57.55953,0.31209 6.91958,2.51457 14.74427,4.57196 17.38819,4.57196 5.56013,0 9.76683,7.48752 61.63029,109.69594 32.79919,64.6381 40.62524,83.35051 42.90306,102.58314 1.44891,12.23367 -2.4565,21.97114 -11.07745,27.6198 -2.94378,1.92883 -17.06181,7.11826 -31.37345,11.53206 -14.31161,4.41383 -37.08094,11.94564 -50.59846,16.73737 -26.99573,9.56955 -46.94544,12.09254 -68.64003,8.6807 z"
         id="path18"
         transform="scale(0.26458333)" />
      <path
         style="fill:#ff7f2a;stroke:#433d5d;stroke-width:11.6789;stroke-opacity:0.55618"
         d="m 83.927216,569.72705 c -48.362431,-6.82739 -89.1986029,-44.14082 -101.88386,-93.09482 -4.689477,-18.09727 -4.329785,-49.28595 0.799705,-69.34207 17.03616909,-66.61078 74.112027,-114.59388 146.121689,-122.84301 28.05284,-3.21363 26.52477,-3.60706 26.53847,6.83286 0.0269,20.52196 11.185,38.61736 28.74337,46.61405 25.54305,11.63319 54.11987,-2.15085 51.37626,-24.78136 -1.86554,-15.38782 -17.02622,-23.37541 -58.15014,-30.63712 l -19.55398,-3.45286 3.72458,-11.00213 c 9.68992,-28.62321 37.8891,-47.56369 70.81433,-47.56369 43.72817,0 81.63417,34.96394 89.39263,82.45447 2.33518,14.29392 2.17731,16.13034 -2.27705,26.48479 -8.66306,20.13779 -1.28298,38.45801 15.49235,38.45801 9.51898,0 12.12743,-1.59501 12.12743,-7.4157 v -4.60828 l -3.3158,4.73398 c -4.3858,6.26158 -12.60249,6.04947 -19.14621,-0.49424 -6.85493,-6.85492 -7.89651,-21.21101 -1.87855,-25.89186 1.67222,-1.30066 3.04037,-3.76948 3.04037,-5.48626 0,-3.46988 7.09341,-10.56844 14.2376,-14.24793 7.08446,-3.64872 26.21746,-2.79335 35.90029,1.60499 11.40714,5.1816 25.31735,21.28972 28.64344,33.16928 10.97177,39.18731 -16.46204,79.10407 -59.58703,86.70038 -11.6659,2.05491 -13.70045,1.70342 -37.82058,-6.53408 -21.88149,-7.47295 -28.02336,-8.70558 -43.37042,-8.70414 -15.23137,10e-4 -19.77858,0.90035 -30.70672,6.0703 -16.05212,7.59403 -31.02372,23.73782 -40.73409,43.92336 -3.96169,8.2354 -7.1437,12.85794 -7.1437,10.37771 0,-12.42331 -11.72668,-29.3105 -24.3278,-35.03365 -15.47045,-7.02633 -38.83864,-3.92522 -42.50966,5.64129 -2.05306,5.3502 -1.56014,13.7497 0.80689,13.7497 1.17151,0 2.13002,-2.72698 2.13002,-6.05993 0,-18.7844 31.90351,-19.68554 48.77898,-1.3778 11.338,12.30026 16.56184,32.75728 11.01724,43.14444 -1.08586,2.03425 -4.78361,9.98493 -8.2172,17.66818 -5.89153,13.1833 -12.88288,21.77942 -30.51986,37.5253 -12.32469,11.00316 -36.46114,16.53516 -58.542994,13.41784 z"
         id="path19"
         transform="scale(0.26458333)" />
      <path
         style="fill:#000000;stroke:#000000;stroke-width:11.6789;stroke-opacity:0.955752"
         d="M 66.244545,558.03853 C 30.763527,545.67083 3.2023974,518.04957 -8.9494752,482.6804 -16.117707,461.81659 -15.591922,424.3546 -7.7952681,400.44346 -0.0476483,376.6827 11.173642,358.52958 29.820257,339.59135 58.696109,310.26392 87.670758,297.16318 139.7546,289.8851 l 8.75848,-1.2239 1.26782,10.70476 c 1.54708,13.06265 10.75971,30.61243 19.61563,37.36717 16.39647,12.5062 37.72786,15.15525 54.21188,6.73233 11.81886,-6.03914 17.273,-13.4745 18.57097,-25.31689 2.10591,-19.21361 -15.31417,-32.54051 -52.49103,-40.15726 -10.86893,-2.22681 -20.28409,-4.57115 -20.92258,-5.20964 -2.67796,-2.67796 7.43462,-19.23329 17.0036,-27.83662 13.0783,-11.75853 27.89714,-16.9954 47.46764,-16.77475 38.79211,0.43738 72.16496,30.45279 81.00648,72.85688 2.83599,13.60151 2.75552,15.4265 -1.17298,26.6038 -5.12949,14.59435 -5.31864,22.9885 -0.73561,32.64655 4.28869,9.0377 12.54833,13.5407 24.8371,13.5407 13.73104,0 16.77854,-4.3119 15.9816,-22.61226 l -0.63556,-14.59404 -8.15731,11.13218 c -6.98239,9.5288 -8.74281,10.81883 -12.22245,8.95659 -5.13992,-2.75081 -7.65458,-12.27728 -4.42403,-16.75994 1.34684,-1.86882 3.29499,-5.31487 4.32925,-7.65789 5.08173,-11.51208 18.28936,-16.01287 34.3966,-11.72139 12.53995,3.34104 28.51956,19.50782 31.98644,32.36106 7.24656,26.86624 -8.55006,56.53012 -37.38842,70.21026 -16.64819,7.89745 -26.4975,7.74688 -51.96515,-0.79441 -18.23907,-6.11698 -23.10959,-6.86706 -44.95069,-6.92256 -21.67779,-0.0551 -25.57123,0.51172 -33.85034,4.92793 -11.93381,6.3657 -28.35406,21.70232 -35.74686,33.38786 l -5.75147,9.09111 -10.78358,-11.29496 c -11.53636,-12.08342 -20.4023,-15.90559 -36.94473,-15.92713 -19.16178,-0.025 -31.14036,9.84853 -29.89013,24.63729 1.14783,13.57739 14.43503,15.87658 16.31752,2.82353 1.15716,-8.02365 4.41737,-10.43255 14.11935,-10.43255 15.88497,0 31.16346,14.36497 34.16325,32.12061 1.23814,7.32845 0.21579,11.15625 -6.95576,26.04312 -16.77247,34.81668 -37.9416,50.65055 -69.523118,52.00118 -14.328088,0.61276 -19.956121,-0.19745 -33.031867,-4.75529 z"
         id="path20"
         transform="scale(0.26458333)" />
      <path
         style="fill:#ffb380;stroke:#000000;stroke-width:5.83945;stroke-opacity:0.55618"
         d="m 261.45976,709.17437 c -23.36475,-3.51483 -55.54593,-11.5995 -84.13573,-21.13689 -30.92917,-10.31779 -43.65175,-16.86407 -53.46456,-27.50972 -6.21617,-6.74373 -8.12525,-13.75291 -7.60126,-27.90799 0.38053,-10.27983 0.65751,-11.41211 4.85108,-19.83094 2.44613,-4.91074 7.81897,-13.24191 11.93963,-18.5137 4.12066,-5.2718 9.93313,-12.69907 12.91661,-16.50505 2.98347,-3.80598 5.6964,-8.27951 6.02873,-9.94118 0.41053,-2.05267 2.77576,-4.76135 7.37798,-8.44934 11.88552,-9.52445 22.75861,-25.00426 28.62023,-40.74604 1.52147,-4.08601 3.88572,-9.59875 5.25389,-12.25053 1.36818,-2.65178 3.93558,-8.88209 5.70535,-13.84512 4.38487,-12.29671 5.9059,-15.72128 10.35227,-23.30785 8.07226,-13.77321 20.79504,-26.06429 32.34314,-31.24571 10.99443,-4.933 34.28213,-4.1172 53.37772,1.86991 6.52933,2.04716 12.8008,3.72211 13.93662,3.72211 4.45469,0 11.08872,11.97827 55.74012,100.64337 38.97408,77.39156 45.59566,93.39066 45.62721,110.24472 0.0195,10.4287 -3.5872,15.94053 -13.08036,19.98954 -9.20687,3.9269 -93.26097,30.94976 -101.70838,32.69859 -8.53035,1.766 -28.07368,2.92541 -34.08029,2.02182 z"
         id="path21"
         transform="scale(0.26458333)" />
      <path
         style="fill:#ffb380;stroke:#433d5d;stroke-width:1.63619;stroke-opacity:0.55618"
         id="path22"
         sodipodi:type="arc"
         sodipodi:cx="61.960056"
         sodipodi:cy="140.17317"
         sodipodi:rx="6.0789771"
         sodipodi:ry="4.5879107"
         sodipodi:start="0"
         sodipodi:end="6.1303028"
         sodipodi:arc-type="slice"
         d="m 68.039033,140.17317 a 6.0789771,4.5879107 0 0 1 -5.846691,4.58456 6.0789771,4.5879107 0 0 1 -6.293511,-4.23419 6.0789771,4.5879107 0 0 1 5.365725,-4.90815 6.0789771,4.5879107 0 0 1 6.703574,3.8591 l -6.008074,0.69868 z" />
      <path
         style="fill:#ffb380;stroke:#433d5d;stroke-width:1.67038;stroke-opacity:0.55618"
         id="path23"
         sodipodi:type="arc"
         sodipodi:cx="80.638443"
         sodipodi:cy="139.67505"
         sodipodi:rx="6.3597693"
         sodipodi:ry="4.570497"
         sodipodi:start="0"
         sodipodi:end="6.1303028"
         sodipodi:arc-type="slice"
         d="m 86.998212,139.67505 a 6.3597693,4.570497 0 0 1 -6.116754,4.56716 6.3597693,4.570497 0 0 1 -6.584212,-4.21813 6.3597693,4.570497 0 0 1 5.613571,-4.88952 6.3597693,4.570497 0 0 1 7.013216,3.84446 l -6.28559,0.69603 z" />
      <path
         style="fill:#000000;stroke:#433d5d;stroke-width:1.03228;stroke-opacity:0.55618"
         d="m 232.0413,543.88927 c -3.1817,-0.31956 -6.62524,-1.26288 -9.0369,-2.47555 -11.55374,-5.80965 -11.38662,-17.72583 0.32823,-23.40494 3.33035,-1.61448 6.67392,-2.31809 10.9679,-2.30804 4.37949,0.0103 7.40913,0.69592 11.11606,2.5158 2.33394,1.14582 4.71553,3.03099 6.05665,4.7942 l 1.0024,1.31788 -0.52132,0.13991 c -0.28673,0.0769 -4.29141,0.56623 -8.89929,1.0873 -4.60788,0.52108 -8.56859,0.98924 -8.80157,1.04037 -0.48677,0.10682 -0.51328,0.47653 -0.29985,4.18063 l 0.12205,2.11802 h 9.67976 9.67977 l -0.12818,0.42361 c -0.53874,1.7804 -2.36839,4.2002 -4.41243,5.83563 -3.63206,2.90601 -8.39709,4.52981 -13.87959,4.72981 -1.22134,0.0445 -2.5595,0.047 -2.97369,0.005 z"
         id="path24"
         transform="scale(0.26458333)" />
      <path
         style="fill:#000000;stroke:#433d5d;stroke-width:1.03228;stroke-opacity:0.55618"
         d="m 301.88903,541.82119 c -5.56862,-0.80193 -9.1787,-2.13013 -12.51658,-4.60501 -2.99293,-2.21913 -4.84369,-5.04593 -5.26927,-8.04817 -0.93072,-6.56569 5.48667,-12.86669 14.99951,-14.72748 8.38522,-1.64021 17.59745,0.5936 22.6614,5.49502 1.1418,1.10515 2.16158,2.37569 2.02025,2.51701 -0.0498,0.0498 -4.42473,0.5718 -9.7221,1.16004 l -9.63158,1.06952 v 0.97037 c 0,0.53371 0.0554,2.00033 0.12307,3.25916 l 0.12306,2.28878 h 10.14011 10.14011 l -0.2761,0.6608 c -0.81798,1.95771 -2.96716,4.35559 -5.30573,5.91973 -3.95921,2.64808 -8.28692,3.91605 -13.81491,4.04763 -1.70854,0.0407 -3.3606,0.0373 -3.67124,-0.007 z"
         id="path25"
         transform="scale(0.26458333)" />
      <path
         style="fill:#ffffff;stroke:#ffffff;stroke-width:1.45071;stroke-opacity:1"
         id="path26"
         sodipodi:type="arc"
         sodipodi:cx="63.710556"
         sodipodi:cy="140.87056"
         sodipodi:rx="1.8430731"
         sodipodi:ry="1.394758"
         sodipodi:start="0"
         sodipodi:end="6.1936356"
         sodipodi:arc-type="slice"
         d="m 65.553629,140.87056 a 1.8430731,1.394758 0 0 1 -1.801815,1.39441 1.8430731,1.394758 0 0 1 -1.882484,-1.33198 1.8430731,1.394758 0 0 1 1.717534,-1.45404 1.8430731,1.394758 0 0 1 1.95938,1.26688 l -1.835688,0.12473 z" />
      <path
         style="fill:#ffffff;stroke:#e8e7ea;stroke-width:1.45071;stroke-opacity:0.94469"
         id="path27"
         sodipodi:type="arc"
         sodipodi:cx="83.436417"
         sodipodi:cy="140.32262"
         sodipodi:rx="1.9426987"
         sodipodi:ry="0.99625576"
         sodipodi:start="0"
         sodipodi:end="6.1303028"
         sodipodi:arc-type="slice"
         d="m 85.379115,140.32262 a 1.9426987,0.99625576 0 0 1 -1.868465,0.99552 1.9426987,0.99625576 0 0 1 -2.011259,-0.91944 1.9426987,0.99625576 0 0 1 1.71476,-1.0658 1.9426987,0.99625576 0 0 1 2.142305,0.838 l -1.920039,0.15172 z" />
      <path
         style="fill:#ff0000;stroke:#000000;stroke-width:1.45071;stroke-opacity:0.946903"
         d="m 54.993317,168.6661 c 0,0 2.988768,-4.6824 9.165553,-3.28765 6.176785,1.39476 5.080905,1.89289 5.080905,1.89289 0,0 11.556566,-10.06218 13.648703,-5.18053 2.092137,4.88165 -0.597752,10.95881 -10.261433,8.9663 -9.663682,-1.99251 -3.686146,-0.89663 -3.686146,-0.89663 0,0 -3.088394,8.26892 -13.947582,-1.49438 z"
         id="path29" />
      <path
         sodipodi:type="star"
         style="fill:#ff7f2a;stroke:#e0b577;stroke-width:1.45071;stroke-opacity:0.94469"
         id="path30"
         inkscape:flatsided="false"
         sodipodi:sides="3"
         sodipodi:cx="68.684769"
         sodipodi:cy="151.03606"
         sodipodi:r1="5.0313382"
         sodipodi:r2="3.5112219"
         sodipodi:arg1="0.79529883"
         sodipodi:arg2="1.8424964"
         inkscape:rounded="0"
         inkscape:randomized="0"
         d="m 72.207065,154.6288 -4.464601,-0.21033 -3.930249,-2.12839 2.414448,-3.76129 3.808363,-2.3395 2.050154,3.97162 z"
         inkscape:transform-center-x="0.67512975"
         inkscape:transform-center-y="-0.62701533"
         transform="translate(2.2542695,3.7336338)" />
    </g>
    <path
       style="fill:#808000;stroke:#000000;stroke-width:11.6789;stroke-opacity:0.955752"
       d="m 200.22173,676.1181 c -5.2718,-1.02789 -17.63698,-5.84294 -27.47819,-10.70013 -29.97075,-14.79223 -51.65911,-40.79933 -60.99681,-73.14293 -5.03585,-17.44302 -3.41093,-60.63135 2.95206,-78.462 8.72532,-24.45048 17.71198,-38.20751 38.61056,-59.10609 30.87449,-30.87449 50.10391,-39.56692 109.99676,-49.72277 6.57204,-1.1144 6.65155,-1.01883 7.89627,9.49089 2.49441,21.06138 17.84361,40.4886 36.97916,46.8039 19.6515,6.48558 46.54458,-2.79992 53.02425,-18.30792 9.88693,-23.66274 -4.42914,-38.67549 -47.32559,-49.62866 -26.04723,-6.6509 -26.60972,-7.43989 -15.79602,-22.15666 14.45771,-19.67606 34.42719,-28.41681 61.02279,-26.71 36.67792,2.35384 67.38618,31.40354 75.6888,71.60082 2.37401,11.49388 2.25716,14.9675 -0.90244,26.82512 -4.52608,16.98576 -4.55394,23.11071 -0.14738,32.39685 4.30986,9.08232 12.55659,13.54069 25.04646,13.54069 12.89277,0 16.22648,-4.83121 16.12731,-23.37163 l -0.0744,-13.90369 -8.66737,10.11759 c -4.76704,5.56467 -9.50403,10.11759 -10.52661,10.11759 -1.0226,0 -3.40496,-2.35904 -5.29414,-5.2423 -3.2254,-4.92259 -3.13145,-5.84987 1.54064,-15.20485 6.32162,-12.65781 11.82201,-16.19342 25.03306,-16.09109 12.64296,0.0979 19.92956,3.59281 30.2941,14.52999 10.95652,11.56187 13.26533,17.06627 13.25172,31.59333 -0.0217,23.19438 -13.76963,43.62772 -37.41537,55.60992 -14.88533,7.54297 -27.29425,7.47556 -52.79768,-0.28682 -17.15657,-5.22187 -23.9619,-6.17212 -44.73039,-6.24579 -20.03035,-0.0711 -26.00377,0.66176 -32.77148,4.02034 -10.25342,5.08842 -31.55656,24.58548 -37.66873,34.47518 l -4.5589,7.37645 -10.47094,-9.79434 c -12.75164,-11.92766 -21.78053,-15.92934 -35.94099,-15.92934 -19.73055,0 -31.95028,8.67688 -31.95028,22.68699 0,10.52517 9.16098,17.45595 14.35562,10.8608 1.15342,-1.46439 2.71627,-5.25644 3.473,-8.42678 3.36853,-14.11248 30.57957,-7.51707 40.77699,9.88352 7.93807,13.54527 7.11142,23.68904 -3.60989,44.29673 -11.11354,21.36164 -25.42376,36.0619 -40.53563,41.6405 -13.84139,5.10959 -33.63597,7.0573 -46.41036,4.56659 z"
       id="path1"
       transform="scale(0.26458333)" />
  </g>
</svg>
